<svg width="1200" height="760" viewBox="0 0 1200 760" fill="none" xmlns="http://www.w3.org/2000/svg">
  <rect width="1200" height="760" rx="36" fill="#0D121A"/>
  <rect x="24" y="24" width="1152" height="712" rx="32" fill="url(#bg)"/>
  <circle cx="180" cy="156" r="110" fill="#FF9C54" fill-opacity="0.08"/>
  <circle cx="1030" cy="152" r="168" fill="#7ED8C1" fill-opacity="0.08"/>
  <circle cx="980" cy="614" r="120" fill="#FF9C54" fill-opacity="0.06"/>
  <path d="M116 548C182 484 246 450 326 438C410 425 473 448 545 514" stroke="#FF9C54" stroke-opacity="0.12" stroke-width="2.5" stroke-linecap="round"/>
  <path d="M652 204C738 168 820 168 900 196C970 221 1024 274 1050 346" stroke="#7ED8C1" stroke-opacity="0.14" stroke-width="2.5" stroke-linecap="round"/>
  <g>
    <rect x="74" y="74" width="348" height="612" rx="30" fill="#121924" stroke="#2D3748"/>
    <rect x="92" y="92" width="312" height="32" rx="16" fill="#172130"/>
    <circle cx="112" cy="108" r="6" fill="#FF8A64"/>
    <circle cx="132" cy="108" r="6" fill="#FFD66B"/>
    <circle cx="152" cy="108" r="6" fill="#7ED8C1"/>
    <text x="98" y="164" fill="#7ED8C1" font-family="IBM Plex Mono" font-size="18" letter-spacing="0.16em">GITMORTEM</text>
    <text x="98" y="236" fill="#F4EFE6" font-family="Space Grotesk" font-size="54" font-weight="700" letter-spacing="-0.04em">Turn one commit</text>
    <text x="98" y="292" fill="#F4EFE6" font-family="Space Grotesk" font-size="54" font-weight="700" letter-spacing="-0.04em">into a postmortem.</text>
    <text x="98" y="360" fill="#B8C0CB" font-family="Space Grotesk" font-size="22">Root cause. Blast radius.</text>
    <text x="98" y="392" fill="#B8C0CB" font-family="Space Grotesk" font-size="22">Timeline. Never again.</text>
    <rect x="98" y="460" width="210" height="58" rx="29" fill="#FF9C54"/>
    <text x="146" y="497" fill="#17120F" font-family="Space Grotesk" font-size="22" font-weight="700">gitmortem</text>
    <rect x="98" y="550" width="278" height="92" rx="20" fill="#182130" stroke="#2D3748"/>
    <text x="120" y="587" fill="#7ED8C1" font-family="IBM Plex Mono" font-size="15">DEFAULT PROVIDER</text>
    <text x="120" y="616" fill="#FCEBD8" font-family="IBM Plex Mono" font-size="18">Groq first, OpenAI ready</text>
  </g>
  <g>
    <rect x="454" y="74" width="672" height="612" rx="30" fill="#111823" stroke="#2D3748"/>
    <rect x="454" y="74" width="672" height="58" rx="30" fill="#161E2C"/>
    <text x="490" y="110" fill="#B8C0CB" font-family="IBM Plex Mono" font-size="17">$ gitmortem HEAD~1 --provider groq</text>
    <rect x="490" y="160" width="600" height="112" rx="20" fill="#182130"/>
    <text x="520" y="204" fill="#F4EFE6" font-family="Space Grotesk" font-size="24" font-weight="700">Incident Summary</text>
    <text x="520" y="236" fill="#B8C0CB" font-family="IBM Plex Mono" font-size="16">Commit         9af31c2d</text>
    <text x="520" y="260" fill="#B8C0CB" font-family="IBM Plex Mono" font-size="16">Severity       SEV2</text>
    <text x="760" y="236" fill="#B8C0CB" font-family="IBM Plex Mono" font-size="16">Detect         12 minutes</text>
    <text x="760" y="260" fill="#B8C0CB" font-family="IBM Plex Mono" font-size="16">Confidence     high</text>
    <rect x="490" y="298" width="286" height="170" rx="20" fill="#121924" stroke="#2D3748"/>
    <text x="520" y="340" fill="#7ED8C1" font-family="IBM Plex Mono" font-size="15" letter-spacing="0.12em">ROOT CAUSE</text>
    <text x="520" y="376" fill="#FCEBD8" font-family="Space Grotesk" font-size="21" font-weight="700">Provider fallback lost</text>
    <text x="520" y="404" fill="#FCEBD8" font-family="Space Grotesk" font-size="21" font-weight="700">its null-guard.</text>
    <text x="520" y="438" fill="#B8C0CB" font-family="Space Grotesk" font-size="16">Default path failed at startup.</text>
    <rect x="796" y="298" width="294" height="170" rx="20" fill="#121924" stroke="#2D3748"/>
    <text x="824" y="340" fill="#7ED8C1" font-family="IBM Plex Mono" font-size="15" letter-spacing="0.12em">BLAST RADIUS</text>
    <text x="824" y="376" fill="#F4EFE6" font-family="Space Grotesk" font-size="20" font-weight="700">config / cli / llm</text>
    <text x="824" y="406" fill="#B8C0CB" font-family="Space Grotesk" font-size="16">release flow and smoke tests</text>
    <rect x="490" y="488" width="600" height="152" rx="20" fill="#182130"/>
    <text x="520" y="528" fill="#7ED8C1" font-family="IBM Plex Mono" font-size="15" letter-spacing="0.12em">NEXT ACTIONS</text>
    <text x="520" y="564" fill="#F4EFE6" font-family="Space Grotesk" font-size="19" font-weight="700">[P0] restore fallback logic</text>
    <text x="520" y="594" fill="#F4EFE6" font-family="Space Grotesk" font-size="19" font-weight="700">[P1] add provider startup tests</text>
    <text x="520" y="624" fill="#B8C0CB" font-family="Space Grotesk" font-size="16">Offline mode still works end-to-end.</text>
  </g>
  <defs>
    <linearGradient id="bg" x1="44" y1="36" x2="1140" y2="724" gradientUnits="userSpaceOnUse">
      <stop stop-color="#101724"/>
      <stop offset="0.54" stop-color="#121824"/>
      <stop offset="1" stop-color="#0F141D"/>
    </linearGradient>
  </defs>
</svg>
