<svg width="1200" height="760" viewBox="0 0 1200 760" fill="none" xmlns="http://www.w3.org/2000/svg">
  <rect width="1200" height="760" rx="36" fill="#0F141B"/>
  <rect x="28" y="28" width="1144" height="704" rx="30" fill="url(#paint0_linear)"/>
  <rect x="68" y="68" width="340" height="624" rx="28" fill="#11161F" fill-opacity="0.92" stroke="#2A3646"/>
  <text fill="#7ED8C1" xml:space="preserve" style="white-space: pre" font-family="IBM Plex Mono" font-size="20" letter-spacing="0.16em"><tspan x="102" y="130.4">GITMORTEM</tspan></text>
  <text fill="#F4EFE6" xml:space="preserve" style="white-space: pre" font-family="Space Grotesk" font-size="58" font-weight="700" letter-spacing="-0.05em"><tspan x="102" y="214.52">Turn one </tspan><tspan x="102" y="273.52">hash into a </tspan><tspan x="102" y="332.52">postmortem.</tspan></text>
  <text fill="#B8C0CB" xml:space="preserve" style="white-space: pre" font-family="Space Grotesk" font-size="25" letter-spacing="-0.02em"><tspan x="102" y="406.2">Root cause. Blast radius. </tspan><tspan x="102" y="440.2">Timeline. Prevention.</tspan></text>
  <rect x="102" y="492" width="198" height="58" rx="29" fill="#FF9C54"/>
  <text fill="#17120F" xml:space="preserve" style="white-space: pre" font-family="Space Grotesk" font-size="24" font-weight="700"><tspan x="148" y="528.6">gitmortem</tspan></text>
  <rect x="438" y="112" width="694" height="536" rx="28" fill="#121924" stroke="#334156"/>
  <rect x="438" y="112" width="694" height="56" rx="28" fill="#171F2E"/>
  <circle cx="482" cy="140" r="8" fill="#FF8A64"/>
  <circle cx="510" cy="140" r="8" fill="#FFD66B"/>
  <circle cx="538" cy="140" r="8" fill="#7ED8C1"/>
  <text fill="#B8C0CB" xml:space="preserve" style="white-space: pre" font-family="IBM Plex Mono" font-size="18"><tspan x="580" y="146.2">$ gitmortem 9af31c2d</tspan></text>
  <text fill="#FCEBD8" xml:space="preserve" style="white-space: pre" font-family="IBM Plex Mono" font-size="18"><tspan x="476" y="216.2">Incident Summary</tspan><tspan x="476" y="260.2">Commit         9af31c2d</tspan><tspan x="476" y="292.2">Severity       SEV2</tspan><tspan x="476" y="324.2">Impact         CLI startup failed for default provider users</tspan><tspan x="476" y="388.2">Root Cause     Null-guard removed from provider-aware model fallback</tspan><tspan x="476" y="452.2">Blast Radius   config, cli, llm, release smoke tests</tspan><tspan x="476" y="516.2">Immediate      Restore fallback logic, add startup coverage</tspan></text>
  <rect x="742" y="566" width="340" height="42" rx="21" fill="#1E2736"/>
  <text fill="#7ED8C1" xml:space="preserve" style="white-space: pre" font-family="IBM Plex Mono" font-size="16" letter-spacing="0.1em"><tspan x="774" y="592.6">groq default | openai | anthropic | ollama</tspan></text>
  <defs>
    <linearGradient id="paint0_linear" x1="76" y1="52" x2="1128" y2="708" gradientUnits="userSpaceOnUse">
      <stop stop-color="#151D27"/>
      <stop offset="1" stop-color="#121722"/>
    </linearGradient>
  </defs>
</svg>

